# xmcd
#
# Track frame offsets:
#	150
#	18752
#	34455
#	51572
#	67672
#	84875
#	103272
#
# Disc length: 1604 seconds
#
# Revision: 1
# Processed by: cddbd v1.5.1PL0 Copyright (c) Steve Scherf et al.
# Submitted via: CDex 1.50Beta5
#
DISCID=52064207
DTITLE=園まり - 夢は夜ひらく
DYEAR=1900
DGENRE=Pop
TTITLE0=夢は夜ひらく
TTITLE1=何も云わないで
TTITLE2=愛は惜しみなく
TTITLE3=帰りたくないの
TTITLE4=逢いたくて逢いたくて
TTITLE5=愛情
TTITLE6=好きなの好きなの
EXTD=
EXTT0=
EXTT1=
EXTT2=
EXTT3=
EXTT4=
EXTT5=
EXTT6=
PLAYORDER=
